<?xml version="1.0" encoding="utf-8" ?>
<svg xmlns="http://www.w3.org/2000/svg" width="86.946" height="116.578" viewBox="0 0 86.946 116.578"><g transform="matrix(0.485, 0.875, -0.875, 0.485, 7.994, -159.85)"><path d="M235.029,41.46q-.531-.43-1.074-.838l-60.07,60.069q.41.542.839,1.074Z" transform="translate(-0.141 -0.141)" fill="#ffd8d8"/><path d="M220.237,33.629c-.5-.148-1-.283-1.5-.412L166.481,85.471c.129.5.265,1,.412,1.5Z" transform="translate(-0.022 -0.022)" fill="#ffd8d8"/><path d="M230.614,38.316q-.595-.369-1.2-.713L170.866,96.151q.347.605.714,1.2Z" transform="translate(-0.092 -0.092)" fill="#ffd8d8"/><path d="M225.7,35.685q-.664-.3-1.336-.577l-56,56q.276.673.577,1.336Z" transform="translate(-0.052 -0.052)" fill="#ffd8d8"/><path d="M214.093,32.275c-.568-.082-1.137-.15-1.706-.208L165.33,79.123c.059.57.127,1.138.208,1.706Z" transform="translate(-0.004 -0.004)" fill="#ffd8d8"/><path d="M238.513,44.6c-.16-.16-.323-.316-.485-.472l-60.642,60.642c.157.161.313.325.472.484s.323.316.485.472l60.642-60.642C238.828,44.918,238.672,44.755,238.513,44.6Z" transform="translate(-0.197 -0.197)" fill="#ffd8d8"/><path d="M207.05,31.848q-1,.021-2,.091L165.2,71.782q-.069,1-.092,2Z" transform="translate(0 0)" fill="#ffd8d8"/><path d="M166.165,65.3l32.4-32.4q-1.3.291-2.576.663L166.827,62.729Q166.455,64.007,166.165,65.3Z" transform="translate(-0.017 -0.017)" fill="#ffd8d8"/><path d="M251.49,78.382q.068-1,.091-2l-41.939,41.938q1-.022,2-.091Z" transform="translate(-0.714 -0.714)" fill="#ffd8d8"/><path d="M251.25,70.93c-.059-.57-.127-1.138-.208-1.706l-48.555,48.555c.567.082,1.135.15,1.706.208Z" transform="translate(-0.599 -0.599)" fill="#ffd8d8"/><path d="M186.3,37.865a43.205,43.205,0,0,0-15.173,15.173Z" transform="translate(-0.097 -0.097)" fill="#ffd8d8"/><path d="M250.02,87.591q.372-1.28.662-2.576l-32.4,32.4q1.3-.292,2.576-.663Z" transform="translate(-0.853 -0.853)" fill="#ffd8d8"/><path d="M230.826,112.736A43.206,43.206,0,0,0,246,97.563Z" transform="translate(-1.054 -1.054)" fill="#ffd8d8"/><path d="M245.535,53.722q-.347-.6-.713-1.2l-59.035,59.035q.595.368,1.2.713Z" transform="translate(-0.332 -0.332)" fill="#ffd8d8"/><path d="M242.493,49.16q-.41-.543-.838-1.075l-60.306,60.306q.531.429,1.074.838Z" transform="translate(-0.26 -0.26)" fill="#ffd8d8"/><path d="M250.018,64.5c-.129-.5-.265-1-.412-1.5l-53.343,53.344c.5.148,1,.282,1.5.412Z" transform="translate(-0.5 -0.5)" fill="#ffd8d8"/><path d="M248.07,58.809q-.277-.672-.578-1.335l-56.755,56.754c.443.2.889.394,1.336.578Z" transform="translate(-0.411 -0.411)" fill="#ffd8d8"/></g></svg>