<?xml version="1.0" encoding="utf-8" ?>
<svg xmlns="http://www.w3.org/2000/svg" width="119.889" height="119.888" viewBox="0 0 119.889 119.888"><g transform="translate(-165.111 -31.848)"><path d="M259.367,41.794q-.743-.6-1.5-1.172L173.885,124.6q.574.757,1.173,1.5Z" transform="translate(3.296 3.296)" fill="#ffc6c6"/><path d="M241.634,33.793c-.7-.206-1.4-.4-2.1-.576L166.481,106.27c.18.7.37,1.4.576,2.1Z" transform="translate(0.515 0.514)" fill="#ffc6c6"/><path d="M254.4,38.6q-.832-.516-1.677-1l-81.853,81.852q.485.846,1,1.678Z" transform="translate(2.162 2.162)" fill="#ffc6c6"/><path d="M248.524,35.914q-.929-.419-1.868-.806l-78.284,78.284q.386.941.806,1.868Z" transform="translate(1.225 1.225)" fill="#ffc6c6"/><path d="M233.5,32.357c-.794-.114-1.589-.209-2.385-.29L165.33,97.853c.083.8.177,1.592.29,2.385Z" transform="translate(0.082 0.082)" fill="#ffc6c6"/><path d="M262.843,44.783c-.224-.224-.451-.442-.678-.66L177.386,128.9c.22.226.437.454.66.677s.451.442.678.66L263.5,45.46C263.284,45.235,263.066,45.006,262.843,44.783Z" transform="translate(4.611 4.611)" fill="#ffc6c6"/><path d="M223.744,31.848q-1.4.029-2.8.127l-55.7,55.7q-.1,1.4-.128,2.8Z" transform="translate(0 0)" fill="#ffc6c6"/><path d="M166.165,78.2l45.3-45.3q-1.812.406-3.6.927L167.091,74.6Q166.571,76.388,166.165,78.2Z" transform="translate(0.396 0.396)" fill="#ffc6c6"/><path d="M268.147,79.18q.095-1.4.127-2.8l-58.633,58.632q1.4-.031,2.8-.127Z" transform="translate(16.726 16.726)" fill="#ffc6c6"/><path d="M270.659,71.609c-.083-.8-.177-1.592-.29-2.385l-67.881,67.881c.792.114,1.587.209,2.385.29Z" transform="translate(14.039 14.039)" fill="#ffc6c6"/><path d="M192.341,37.865a60.4,60.4,0,0,0-21.212,21.212Z" transform="translate(2.26 2.26)" fill="#ffc6c6"/><path d="M262.654,88.616q.52-1.789.926-3.6l-45.3,45.3q1.812-.409,3.6-.927Z" transform="translate(19.971 19.97)" fill="#ffc6c6"/><path d="M230.826,118.775a60.4,60.4,0,0,0,21.212-21.212Z" transform="translate(24.684 24.684)" fill="#ffc6c6"/><path d="M269.317,54.2q-.485-.844-1-1.677l-82.533,82.533q.832.514,1.677,1Z" transform="translate(7.766 7.766)" fill="#ffc6c6"/><path d="M266.831,49.589q-.574-.759-1.172-1.5l-84.31,84.31q.743.6,1.5,1.172Z" transform="translate(6.099 6.099)" fill="#ffc6c6"/><path d="M271.414,65.1c-.18-.7-.37-1.4-.576-2.1l-74.575,74.576c.7.206,1.4.395,2.1.576Z" transform="translate(11.701 11.701)" fill="#ffc6c6"/><path d="M270.89,59.341q-.388-.939-.807-1.867l-79.346,79.344c.619.279,1.242.55,1.868.807Z" transform="translate(9.626 9.626)" fill="#ffc6c6"/></g></svg>