<?xml version="1.0" encoding="UTF-8"?> <svg xmlns="http://www.w3.org/2000/svg" xmlns:xlink="http://www.w3.org/1999/xlink" width="135" height="23" viewBox="0 0 135 23"><defs><clipPath id="a"><rect width="135" height="23" transform="translate(0.651 0.796)"></rect></clipPath></defs><g transform="translate(-0.651 -0.796)" clip-path="url(#a)"><path d="M12,23.778V19.334a7,7,0,0,0,6.512-9.561A6.616,6.616,0,0,0,14.547,5.8a7,7,0,0,0-9.465,6.531H.651A11.467,11.467,0,0,1,15.689,1.491a10.992,10.992,0,0,1,7.183,7.2A11.5,11.5,0,0,1,12,23.778Z" transform="translate(0 0.012)"></path><path d="M12.493,22.046H8.063V17.669h4.431ZM8.063,25.48H4.706V22.046H8.063ZM4.706,22.046H1.887V19.218H4.706ZM41.561,10.262a8.514,8.514,0,0,0-4.833-1.347h-4.1v13.13h4.1a8.2,8.2,0,0,0,4.833-1.414,5.148,5.148,0,0,0,1.678-2.087,7.5,7.5,0,0,0,.6-3.1,6.966,6.966,0,0,0-.6-3.03A4.27,4.27,0,0,0,41.561,10.262Zm-6.512.875h1.276a6.493,6.493,0,0,1,3.558.875c1.007.606,1.477,1.751,1.477,3.434a4.155,4.155,0,0,1-1.477,3.569,6.519,6.519,0,0,1-3.491.875H35.049ZM46.73,8.714a1.364,1.364,0,0,0-1.007.4,1.213,1.213,0,0,0-.47,1.01,1.41,1.41,0,1,0,2.417-1.01A1.125,1.125,0,0,0,46.73,8.714Zm-1.208,4.04h2.35v9.225h-2.35Zm10.741.808a3.545,3.545,0,0,0-2.35-1.01A4.149,4.149,0,0,0,50.758,13.9a4.7,4.7,0,0,0-1.275,3.3,4.762,4.762,0,0,0,1.208,3.3,4.1,4.1,0,0,0,3.155,1.279,3.709,3.709,0,0,0,2.282-.741v.2a2.41,2.41,0,0,1-.6,1.751,2.23,2.23,0,0,1-1.678.606,2.846,2.846,0,0,1-2.551-1.549l-1.611,1.549.067.067a6.439,6.439,0,0,0,1.544,1.414,4.374,4.374,0,0,0,2.551.673,4.2,4.2,0,0,0,3.289-1.279A4.744,4.744,0,0,0,58.411,21.1V12.754H56.128v.808Zm-.6,5.454a2.264,2.264,0,0,1-3.222,0,2.7,2.7,0,0,1-.6-1.818,2.7,2.7,0,0,1,.6-1.818,2.264,2.264,0,0,1,3.222,0,2.7,2.7,0,0,1,.6,1.818A2.7,2.7,0,0,1,55.658,19.016Zm4.9-6.262h2.35v9.225h-2.35ZM61.7,8.714a1.379,1.379,0,1,0,1.007.4A1.364,1.364,0,0,0,61.7,8.714Zm6.243,1.549H65.661v2.491H64.318v2.087h1.343v3.838a3.634,3.634,0,0,0,.738,2.559,3.532,3.532,0,0,0,2.484.741,6.484,6.484,0,0,0,1.141-.067h.134V19.824l-.805.067c-.537,0-.94-.067-1.074-.269a1.785,1.785,0,0,1-.269-1.212v-3.5h2.148V12.821H68.01ZM80.967,8.916h2.349v13.13H80.967Zm25.778,9.831a7.765,7.765,0,0,1-1.141,1.077,2.311,2.311,0,0,1-1.208.337,2.286,2.286,0,0,1-1.679-.741,2.77,2.77,0,0,1-.671-1.953,2.769,2.769,0,0,1,.671-1.953,2.062,2.062,0,0,1,1.679-.741,3.084,3.084,0,0,1,2.215,1.279l1.544-1.481a4.638,4.638,0,0,0-3.826-1.885,4.466,4.466,0,0,0-3.29,1.414A4.9,4.9,0,0,0,99.7,17.534a4.786,4.786,0,0,0,1.343,3.434,4.361,4.361,0,0,0,3.29,1.414,4.639,4.639,0,0,0,3.961-2.087ZM116.21,14.1a3.535,3.535,0,0,0-1.343-1.077,4.37,4.37,0,0,0-1.947-.4,3.984,3.984,0,0,0-3.155,1.414,5.422,5.422,0,0,0-1.141,3.434A4.63,4.63,0,0,0,109.9,20.9a4.491,4.491,0,0,0,3.357,1.347,4.639,4.639,0,0,0,3.826-1.885l.067-.067-1.544-1.481a4.058,4.058,0,0,1-.537.539,2.045,2.045,0,0,1-.671.471,2.2,2.2,0,0,1-1.141.269,2.581,2.581,0,0,1-1.612-.539,2.026,2.026,0,0,1-.671-1.414h6.176v-.875a5.032,5.032,0,0,0-.269-1.751A3.055,3.055,0,0,0,116.21,14.1Zm-5.035,2.155a2.391,2.391,0,0,1,.6-1.077,1.616,1.616,0,0,1,1.208-.471,1.577,1.577,0,0,1,1.276.471,1.973,1.973,0,0,1,.47,1.077Zm13.963-2.761a4.232,4.232,0,0,0-2.887-.875,5.864,5.864,0,0,0-2.148.471,3.637,3.637,0,0,0-1.544,1.481l1.477,1.414a2.346,2.346,0,0,1,2.215-1.347,1.871,1.871,0,0,1,1.208.4,1.214,1.214,0,0,1,.47,1.01v.471a5.126,5.126,0,0,0-1.678-.269,4.661,4.661,0,0,0-2.819.808,2.7,2.7,0,0,0-1.074,2.289,2.611,2.611,0,0,0,.873,2.087,3.161,3.161,0,0,0,2.215.741,4.088,4.088,0,0,0,2.483-.943v.741h2.283V16.053A3.131,3.131,0,0,0,125.139,13.494Zm-4.1,4.983a1.7,1.7,0,0,1,1.074-.269,5.692,5.692,0,0,1,1.745.337v.875a2.965,2.965,0,0,1-2.014.741,1.31,1.31,0,0,1-.94-.269.938.938,0,0,1-.335-.673A1.1,1.1,0,0,1,121.044,18.477Zm14.1-4.848a3.391,3.391,0,0,0-2.685-1.077,2.99,2.99,0,0,0-2.215.808v-.539h-2.283v9.225h2.35V16.928a2.633,2.633,0,0,1,.47-1.683,1.687,1.687,0,0,1,1.342-.606,1.473,1.473,0,0,1,1.208.539,2.432,2.432,0,0,1,.47,1.481v5.387h2.349V16.659A5.1,5.1,0,0,0,135.141,13.629ZM78.08,13.494a4.235,4.235,0,0,0-2.887-.875,5.867,5.867,0,0,0-2.148.471A3.641,3.641,0,0,0,71.5,14.572l1.477,1.414a2.345,2.345,0,0,1,2.215-1.347,1.87,1.87,0,0,1,1.208.4,1.213,1.213,0,0,1,.47,1.01v.471a5.13,5.13,0,0,0-1.679-.269,4.662,4.662,0,0,0-2.819.808A2.7,2.7,0,0,0,71.3,19.352a2.611,2.611,0,0,0,.873,2.087,3.162,3.162,0,0,0,2.215.741,4.089,4.089,0,0,0,2.484-.943v.741h2.282V16.053A3.347,3.347,0,0,0,78.08,13.494Zm-4.162,4.983a1.7,1.7,0,0,1,1.074-.269,5.7,5.7,0,0,1,1.745.337v.875a2.967,2.967,0,0,1-2.014.741,1.309,1.309,0,0,1-.94-.269.936.936,0,0,1-.336-.673A2.007,2.007,0,0,1,73.918,18.477Zm17.789,3.771a6.733,6.733,0,1,1,6.713-6.733A6.743,6.743,0,0,1,91.708,22.248Zm0-11.177a4.377,4.377,0,1,0,4.364,4.377A4.361,4.361,0,0,0,91.708,11.07Z" transform="translate(-0.43 -2.693)"></path></g></svg> 