<svg fill="none" height="22" viewBox="0 0 76 22" width="76" xmlns="http://www.w3.org/2000/svg"><path d="m27.162.990005v20.009995h4.35v-8.555c0-2.175 1.218-3.85699 3.277-3.85699 1.566 0 2.32.928 2.32 2.55199v9.86h4.35v-10.179c0-3.71199-2.349-5.53899-5.481-5.53899-.8561-.02701-1.7065.14795-2.4823.5107-.7759.36274-1.4555.90309-1.9837 1.5773v-6.380005zm23.606 20.357995c4.466 0 7.018-2.117 7.018-6.061v-9.65699h-4.35v9.79999c.0283.3577-.0213.7172-.1454 1.0538s-.3196.6424-.5732.8962c-.2536.2537-.5592.4495-.8957.5738-.3366.1243-.696.1742-1.0537.1462-.3561.0274-.7138-.0231-1.0483-.148-.3346-.1248-.638-.3209-.8891-.5748s-.444-.5594-.5651-.8953c-.1212-.3359-.1678-.6942-.1365-1.0499v-9.79999h-4.35v9.65699c0 3.942 2.552 6.059 6.989 6.059zm9.483-20.357995v20.009995h4v-2.2c.511.8346 1.2408 1.5134 2.1103 1.9625.8694.4492 1.8453.6517 2.8217.5855 3.538 0 6.438-2.262 6.438-8.033 0-5.77099-2.9-8.03299-6.438-8.03299-.8724-.04435-1.7429.1192-2.5397.47717-.7968.35798-1.4971.90014-2.0433 1.58183v-6.351005zm7.627 17.109995c-1.885 0-3.364-1.16-3.364-4.785 0-3.62499 1.479-4.78499 3.364-4.78499 2.146 0 3.306 1.305 3.306 4.78499 0 3.509-1.189 4.785-3.306 4.785z" fill="#003365"/><path d="m6.5 13c3.5899 0 6.5-2.9101 6.5-6.5 0-3.58985-2.9101-6.5-6.5-6.5-3.58985 0-6.5 2.91015-6.5 6.5 0 3.5899 2.91015 6.5 6.5 6.5z" fill="#597ffb"/><path d="m13.5 13c3.5899 0 6.5-2.9101 6.5-6.5 0-3.58985-2.9101-6.5-6.5-6.5-3.58985 0-6.5 2.91015-6.5 6.5 0 3.5899 2.91015 6.5 6.5 6.5z" fill="#ed6a04" opacity=".316"/></svg>